<?xml version="1.0" standalone="no"?>
<!DOCTYPE svg PUBLIC "-//W3C//DTD SVG 20010904//EN"
 "http://www.w3.org/TR/2001/REC-SVG-20010904/DTD/svg10.dtd">
<svg version="1.0" xmlns="http://www.w3.org/2000/svg"
 width="512.000000pt" height="512.000000pt" viewBox="0 0 512.000000 512.000000"
 preserveAspectRatio="xMidYMid meet">
<metadata>
Created by potrace 1.11, written by Peter Selinger 2001-2013
</metadata>
<g transform="translate(0.000000,512.000000) scale(0.100000,-0.100000)"
fill="#000000" stroke="none">
<path d="M1827 4444 c-1 -1 -31 -4 -67 -8 -103 -10 -179 -27 -287 -67 -55 -19
-214 -97 -223 -108 -3 -3 -30 -22 -60 -42 -267 -176 -477 -533 -505 -859 -12
-138 -4 -294 21 -400 76 -325 278 -603 565 -777 101 -61 276 -129 381 -148
228 -41 474 -21 673 56 73 28 194 88 223 112 7 5 14 8 17 6 2 -2 343 -342 757
-756 452 -452 765 -756 783 -763 50 -19 91 -19 134 1 51 23 165 131 187 178
21 45 21 107 0 151 -9 20 -339 358 -766 784 -413 413 -750 751 -750 752 0 1
18 33 40 70 49 85 103 221 130 334 28 113 35 340 15 462 -90 536 -524 951
-1060 1014 -55 6 -203 12 -208 8z"/>
</g>
</svg>
